
/* XPM */
static char *result[] = {
/* columns rows colors chars-per-pixel */
"32 32 8 1 ",
"  c #211F30",
". c #076029",
"X c #A14744",
"o c #B0664D",
"O c #B96E54",
"+ c #D97135",
"@ c #B3562F",
"# c #CF9E6E",
/* pixels */
"+@@@@@@@@@@@@@@@+@@@@@@@@@@@@@@@",
"+@++@@@@+@@@@@@@+@@@@++@+@@@@@@@",
".@++@@@@+@@@@@@@.@@@@++@+@@@@@@@",
" +@@@@@+ @@@@@+@ +@@@@@+ @+@@@@@",
"  +++++  +@@@@@+  +++++  +@@@@@+",
"XX     XX +++++ XX     XX +++++ ",
"OOXXXXXOOX     XOOXXXXXOOX     X",
"OOOOOOOOOOXXXXXOOOOOOOOOOOXXXXXO",
"OOOOOOOOOOOOOOOOOOOOOOOOOOOOOOOO",
"oooOOOOOOOOOOooooooOOOOOOOOOOooo",
"OOOooOOOOOOooOOOOOOooOOOOOOooOOO",
"OOOOOooooooOOOOOOOOOOooooooOOOOO",
"OOOOOOOOOOOOOOOOOOOOOOOOOOOOOOOO",
"OOOOOOOOOOOOOOOOOOOOOOOOOOOOOOOO",
"oooOOOOOOOOOOooooooOOOOOOOOOOooo",
"oooooOOOOOOooooooooooOOOOOOooooo",
"OOOooooooooooOOOOOOooooooooooOOO",
"OOOOOooooooOOOOOOOOOOooooooOOOOO",
"OOOOOOOOOOOOOOOOOOOOOOOOOOOOOOOO",
"OOOOOOOOOOOOOOOOOOOOOOOOOOOOOOOO",
"OOOOOOOOOOOOOOOOOOOOOOOOOOOOOOOO",
"OOOOOOOOOOOOOOOOOOOOOOOOOOOOOOOO",
"OOOOOOOOOOOOOOOOOOOOOOOOOOOOOOOO",
"OOOOOOOOOOOOOOOOOOOOOOOOOOOOOOOO",
"OOOOOOOOOOOOOOOOOOOOOOOOOOOOOOOO",
"oooOOOOOOOOOOooooooOOOOOOOOOOooo",
"OOOooOOOOOOooOOOOOOooOOOOOOoXXOO",
"OOOXOooooooOOOOOOOOOOooooooXOO#O",
"OOO#OOOOOOOOOOOOOOOOOOOOOOOXOO#O",
"OOOOOOOOOOOOOOOOOOOOOOOOOOOO##OO",
"oooOOOOOOOOOOooooooOOOOOOOOOOooo",
"oooooOOOOOOooooooooooOOOOOOooooo"
};