/* XPM */
static char *result[] = {
/* columns rows colors chars-per-pixel */
"32 32 13 1 ",
"  c #211F30",
". c #001C40",
"X c #48475B",
"o c #D2612F",
"O c #F2BC7E",
"+ c #0230C7",
"@ c #267AE9",
"# c #EA71BD",
"$ c #4FB8FF",
"% c #FBDFB1",
"& c #F89CC0",
"* c #D8E1E4",
"= c white",
/* pixels */
"................................",
".$$$$$$$$$$$$$$$$$$$$$$$$$$$$$$.",
".+$$$$$$$   $$$$$$$$$   $$$$$$$.",
".++@@@@@ *== @@@@@@@ *== @@@@$$.",
".++@@@@ *==== @@@@@ **=== @@@$$.",
".++@@@@ *====        **== @@@$$.",
".++@@@@ *================ @@@$$.",
".++@@@ *=**==XXXXXXXXXX=== @@$$.",
".++@@@ *=**=XOOOOOOOOOOX== @@$$.",
".++@@@ *=== OO%%%%%%oo%OX= @@$$.",
".++@@@ *=*= O%oooo%o==o%X= @@$$.",
".++@@@ *=== O%o==o%o==o%X= @@$$.",
".++@@@ *=== O%o==o%o==o%X= @@$$.",
".++@@@ *=== O%OooO%OooO%X= @@$$.",
".++@@@ *===* O%%%%%%%%%X*= @@$$.",
".++@@@  ====*          *== @@$$.",
".++@@ %O  ==============& O @$$.",
".++@@ %O &&&==========&& OO @$$.",
".++@@ O #&&&##########  # O @$$.",
".++@@@ ###&&&&#######&& ## @@$$.",
".++@@@@     &&&&###&&&&   @@@$$.",
".++@@@@@@ #&&&&&&#&&&&& @@@@@$$.",
".++@@@@@@ **=*=======** @@@@@$$.",
".++@@@@@@ #&&&& #&&&&&& @@@@@$$.",
".++@@@@@@@ ##&&    #&&&# @@@@$$.",
".++@@@@@@@@ #&& @@@  &&& @@@@$$.",
".++@@@@@@@@@   @@@@ #&&& @@@@$$.",
".++@@@@@@@@@@@@@@@@@ #&& @@@@$$.",
".++@@@@@@@@@@@@@@@@@@   @@@@@$$.",
".+++++++++++++++++++++++++++++$.",
".++++++++++++++++++++++++++++++.",
"................................"
};
