/* XPM */
static char *result[] = {
/* columns rows colors chars-per-pixel */
"32 32 13 1 ",
"  c #211F30",
". c #076029",
"X c #001C40",
"o c #D85D09",
"O c #9C1B4D",
"+ c #CC3048",
"@ c #E44A4A",
"# c #28860F",
"$ c #72A11D",
"% c #FFA61F",
"& c #A4CC42",
"* c #FFD156",
"= c white",
/* pixels */
"XXXXXXXXXXXXXXXXXXXXXXXXXXXXXXXX",
"X******************************X",
"Xo*****************************X",
"Xoo%%   %%%      %%%    %%%%%**X",
"Xoo% @@@ % $$$$$$ % $$$$ %%%%**X",
"Xoo% +++O                %%%%**X",
"Xoo%%  O O+@@@+@++++@+@@@ %%%**X",
"Xoo% +O    OOO+O++++O+OO  %%%**X",
"Xoo% @+ OO+++++++++++++++ %%%**X",
"Xoo% @+                   %%%**X",
"Xoo% @  ####.====.#.====.# %%**X",
"Xoo%%  #$$$$#....#$#....#$ %%**X",
"Xoo%%% $$$$$$$$$$$$$$$$$$$ %%**X",
"Xoo%%% $$$$$............$$ %%**X",
"Xoo%%% $$$$#$$$$$$$$$$$$#$ %%**X",
"Xoo%%%   #$$$$$$#####$$$$$ %%**X",
"Xoo%% #$$ #$$$$$$$$$$$$$# # %**X",
"Xoo%% #$$$$$$$$$$$$$$$## ## %**X",
"Xoo%% #$$$$$$$$$$$$$$$  ### %**X",
"Xoo%%% ##$$$$$&&&&&&&$$ ## %%**X",
"Xoo%%%%     $&&&&&&&&&$   %%%**X",
"Xoo%%%%%% #$$&&&&&&&&&$ %%%%%**X",
"Xoo%%%%%% #$$&&&&&&&&&$ %%%%%**X",
"Xoo%%%%%% #$$$$ $&&&&&$ %%%%%**X",
"Xoo%%%%%%% ##$$    $&$$# %%%%**X",
"Xoo%%%%%%%% #$$ %%%  $$$ %%%%**X",
"Xoo%%%%%%%%%   %%%% #$$$ %%%%**X",
"Xoo%%%%%%%%%%%%%%%%% #$$ %%%%**X",
"Xoo%%%%%%%%%%%%%%%%%%   %%%%%**X",
"Xooooooooooooooooooooooooooooo*X",
"XooooooooooooooooooooooooooooooX",
"XXXXXXXXXXXXXXXXXXXXXXXXXXXXXXXX"
};
