/* XPM */
static char *result[] = {
/* columns rows colors chars-per-pixel */
"32 32 15 1 ",
"  c #211F30",
". c #001C40",
"X c #D85D09",
"o c #A14744",
"O c #B96E54",
"+ c #FFA61F",
"@ c #CF9E6E",
"# c #F2BC7E",
"$ c #FFD156",
"% c #2FACDA",
"& c #6CD9F1",
"* c #E4C997",
"= c #FBDFB1",
"- c #ACF7FA",
"; c white",
/* pixels */
"................................",
".$$$$$$$$$$$$$$$$$$$$$$$$$$$$$$.",
".X$$$$$$$$$$$$$$$$$$$$$$$$$$$$$.",
".XX+++++++++           ++++++$$.",
".XX+++++++  --&&&&&&&-- +++++$$.",
".XX++++++ -&&&&&&&&&&&&- ++++$$.",
".XX+++++ -&&%            ++++$$.",
".XX++++ -&&% Oo@@@@*@**@@ +++$$.",
".XX++++ -&% Oo@@@@@@*@**@@ ++$$.",
".XX+++ &&&% Oo@@@@@@@*@**@ ++$$.",
".XX+++      Oo@@@@@@@@*@** ++$$.",
".XX++ O@*@O Oo@@@@@@@@@*@* ++$$.",
".XX++       Oo@@@@@@@@@@*@ ++$$.",
".XX+++ %%%% Oo@@@@@@@@@@@* ++$$.",
".XX+++ %&&% OoO@@@ooooo@@O ++$$.",
".XX+++  &&&% OoOOOOOOOOOO  ++$$.",
".XX++ =#  &&%            ## +$$.",
".XX++ =# &&&&%%%%%%%%%%%  # +$$.",
".XX++ # %&&&&&&&;;;;-&  % # +$$.",
".XX+++ %%%&&&&&&&&&&&&& %% ++$$.",
".XX++++     &&&&&;;-&&&   +++$$.",
".XX++++++ %&&&&&&&&&&&& +++++$$.",
".XX++++++ %&&&&&&&-&&&& +++++$$.",
".XX++++++ %&&&& %&&&&&& +++++$$.",
".XX+++++++ %%&&    %&&&% ++++$$.",
".XX++++++++ %&& +++  &&& ++++$$.",
".XX+++++++++   ++++ %&&& ++++$$.",
".XX+++++++++++++++++ %&& ++++$$.",
".XX++++++++++++++++++   +++++$$.",
".XXXXXXXXXXXXXXXXXXXXXXXXXXXXX$.",
".XXXXXXXXXXXXXXXXXXXXXXXXXXXXXX.",
"................................"
};
