/* XPM */
static char *result[] = {
/* columns rows colors chars-per-pixel */
"32 32 18 1 ",
"  c #211F30",
". c #001C40",
"X c #843346",
"o c #A14744",
"O c #B96E54",
"+ c #E68D41",
"@ c #CF9E6E",
"# c #F2BC7E",
"$ c #0230C7",
"% c #267AE9",
"& c #EA71BD",
"* c #2FACDA",
"= c #4FB8FF",
"- c #6CD9F1",
"; c #E4C997",
": c #FBDFB1",
"> c #F89CC0",
", c white",
/* pixels */
"................................",
".========== === === === =======.",
".$======== - = > = - = > ======.",
".$$%%%%%% *-- &>> *-- &>> %%%==.",
".$$%%%%   *-- &>> *-- &>>   %==.",
".$$%%% >> *-- &>> *-- &>> -- ==.",
".$$%%% >>& *   &   *   & *-- ==.",
".$$%%%% &&               ** %==.",
".$$%%%%%  oX;;@ oXOO@ @;;  %%==.",
".$$%%%% + oX@@@ oXOO@ @@@ %%%==.",
".$$%%% #+ OXXX@ oXOOO @XX %%%==.",
".$$%%% #+ OX,,X oXOO@ X,, %%%==.",
".$$%% ##+ OX,,X oXOOO X,, %%%==.",
".$$%% ##+ OXXX  oXOOO  XX %%%==.",
".$$%% ##+ OX@ , oXOOO , @ %%%==.",
".$$%% ##+ OX@ X XXooo o @ %%%==.",
".$$%% +#+ OX@ XX     Xo @ %%%==.",
".$$%%  #+ oX@ ,,,X,,,,, @ %%%==.",
".$$% + ++ oXO@         @O  %%==.",
".$$% +# ++ oXOOOOOOOOOOO + %%==.",
".$$% +##  +             ++ %%==.",
".$$%% ++###+++++++++++ ++ %%%==.",
".$$%%%    ############   %%%%==.",
".$$%%%%% +#######:#::# %%%%%%==.",
".$$%%%%% +#########::# %%%%%%==.",
".$$%%%%% +#### ####### %%%%%%==.",
".$$%%%%%% ++##    +###+ %%%%%==.",
".$$%%%%%%% +## %%%  ### %%%%%==.",
".$$%%%%%%%%   %%%% +### %%%%%==.",
".$$$$$$$$$$$$$$$$$$ +## $$$$$$=.",
".$$$$$$$$$$$$$$$$$$$   $$$$$$$$.",
"................................"
};
