/* XPM */
static char *result[] = {
/* columns rows colors chars-per-pixel */
"32 32 12 1 ",
"  c #0E121C",
". c #182534",
"X c #21303D",
"o c #2B3B47",
"O c #394B54",
"+ c red",
"@ c #875002",
"# c #8C660C",
"$ c #AF7B2E",
"% c green",
"& c #BFA92C",
"* c #EBC957",
/* pixels */
"XXXXXXXXXXXXXXXXXXXXXXXXXXXXXXXX",
"XoooooooooooooooooooooooooooooO.",
"XoXooooooooooooXooooooooooooXoO.",
"XoooooooooooooooooooooooooooooO.",
"XoooooooooooooooooooooooooooooO.",
"XoooooooooooooooooooooooooooooO.",
"XoooooooooooooooooooooooooooooO.",
"XoooooooooooooooooooooooooooooO.",
"XoooooooooooooooooooooooooooooO.",
"XoooooooooooooooooooooooooooooO.",
"Xoooooooooo%oo%ooo%oo%ooooooooO.",
"Xooooooooo%oooo%ooo%oo%oooooooO.",
"Xoooooooooo%oo%ooo%oo%ooooooooO.",
"Xooooooooo%oooo%ooo%oo%oooooooO.",
"Xoooooooooo%oo%ooo%oo%ooooooooO.",
"XoXoooooo               ooooXoO.",
"Xoooooooo #&*&*******&# ooooooO.",
"Xoooooooo  $$$$$$$$$@@  ooooooO.",
"Xooooooooo $$$$$$$$$@@ oooooooO.",
"Xooooooooo $$$++++$$@@ oooooooO.",
"Xoooooooo  $$$++++$$@@  ooooooO.",
"Xoooooooo #&***++**&*&# ooooooO.",
"Xoooooooo  $$$$$$$$$@@  ooooooO.",
"Xooooooooo $$$$++$$$@@ oooooooO.",
"Xooooooooo $$$$++$$$@@ oooooooO.",
"Xoooooooo  $$++$$++$@@  ooooooO.",
"Xoooooooo #&+++**+++*&# ooooooO.",
"Xoooooooo  $++$$$$++@@  ooooooO.",
"XoXooooooo $$$$$$$$$@@ oooooXoO.",
"Xooooooooo $$$$$$$$$@@ oooooooO.",
"XOOOOOOOO  $$$$$$$$$@@  OOOOOOO.",
"X........ #&*******&*&# ........"
};
