/* XPM */
static char *result[] = {
/* columns rows colors chars-per-pixel */
"32 32 7 1 ",
"  c #141D2B",
". c #182534",
"X c #1C2839",
"o c #21303D",
"O c #233340",
"+ c #2B3B47",
"@ c #394B54",
/* pixels */
"oooooooooooooooooooooooooooooooo",
"o+++++++++++++++++++++++++++++@.",
"o+o++++++++++++o++++++++++++o+@.",
"o+++++++++++++++++++++++++++++@.",
"o+++++++++++++++++++++++++++++@.",
"o+++++++++++++++++++++++++++++@.",
"o+++++++++++++++++++++++++++++@.",
"o+++++++++++++++++++++++++++++@.",
"o+++++++++++++++++++++++++++++@.",
"   +   +   +   +   +   +   +   .",
"                                ",
"XXX XXX XXX XXX XXX XXX XXX XXX ",
"XXX XXX XXX XXX XXX XXX XXX XXX ",
"+OOX+OOXOOOX+OOX++OX+OO +OOXOOO ",
"OOOX+OOX+++X+OOX++OX+OOX+OOX+OOX",
"+OOX+OOX+++X+OOX+OOX+OOX+OOX+OOX",
"+OOX+OOX+++X+OOXOOOX+OOX+OOX+OOX",
"+OOX++OXOO+XOOOXOOOX+OOXOOOX+OOX",
"+OOX++O OOOX+OOXOOO +OOX+OOX+OOX",
"XXX XXX XXX XXX XXX XXX XXX XXX ",
"XXX XXX XXX XXX XXX XXX XXX XXX ",
"                                ",
"   +   +   +   +   +   +   +   .",
"o+++++++++++++++++++++++++++++@.",
"o+++++++++++++++++++++++++++++@.",
"o+++++++++++++++++++++++++++++@.",
"o+++++++++++++++++++++++++++++@.",
"o+++++++++++++++++++++++++++++@.",
"o+o++++++++++++o++++++++++++o+@.",
"o+++++++++++++++++++++++++++++@.",
"o@@@@@@@@@@@@@@@@@@@@@@@@@@@@@@.",
"o..............................."
};
