/* XPM */
static char *result[] = {
/* columns rows colors chars-per-pixel */
"32 32 13 1 ",
"  c #0E121C",
". c #182534",
"X c #252C3F",
"o c #21303D",
"O c #017C1B",
"+ c #2B3B47",
"@ c #303850",
"# c #6C0175",
"$ c #394B54",
"% c #4F6276",
"& c #008000",
"* c #3DC03D",
"= c #D6CACA",
/* pixels */
"oo                            oo",
"o+ XXXXXXXXXXXXXXXXXXXXXXXXXX $.",
"o+ XXXXXXXXXXXXXXXXXXXXXXXXXX $.",
"o++ XX@XXX@@XXX@@XXX@@XXX@XX +$.",
"o++ %%%%%%%%%%%%%%%%%%%%%%%% +$.",
"o++   ======@@X@@X@@======   +$.",
"o++++ =+++++========+++++= +++$.",
"o++++ =++++=+++++++++++++= +++$.",
"o++++ =+++=++++++++++++++= +++$.",
"o++++ =++=+++++++++++++++= +++$.",
"o++++ =+=+++++=++++++++++= +++$.",
"o++++ =++++++=++++++++OO+= +++$.",
"o++++ =+&&&+=+++++OOOOO*+= +++$.",
"o++++ =+**&=++++OOOOOO**+= +++$.",
"o++++ =+**=*OOOOOO******+= +++$.",
"o+o++ =+*=******#****##*+= +o+$.",
"o++++ =+=*#**********##*+= +++$.",
"o++++ =+****##**********+= +++$.",
"o++++ =+****##*****#****+= +++$.",
"o++++ =+****************== +++$.",
"o++++ =+*******#*******=+= +++$.",
"o++++ =+*******##*****=*+= +++$.",
"o++++ =++++++******++++++= +++$.",
"o+++  ======++++++++======  ++$.",
"o+++ %%%%%@%========%%%@%%% ++$.",
"o++  @@@@@@%%@%%%%%%%@@@@@@  +$.",
"o++ %%%%@%%%%@@@@@@@@@%%%%%% +$.",
"o++ %%%%@%%%%%%@%%%%%%%%%%%% +$.",
"o+o XX@@XX@@XXXXXXX@@XXX@@XX +$.",
"o+ XXXXXXXXXXXXXXXXXXXXXXXXXX $.",
"o$                            $.",
"o. XXX XXX XXX    XXX XXX XXX .."
};
