/* XPM */
static char *result[] = {
/* columns rows colors chars-per-pixel */
"32 32 12 1 ",
"  c #0E1118",
". c #0E121C",
"X c #191C27",
"o c #182534",
"O c #252C3F",
"+ c #21303D",
"@ c #2B3B47",
"# c #303850",
"$ c #394B54",
"% c #4F6276",
"& c #008080",
"* c white",
/* pixels */
"++++++++++++++++++++++++++++++++",
"+@@@@@@@@@@*@@*@@****@@@@@@@@@$o",
"+@+@@@@@@@@*@@*@@@@@*@@@@@@@+@$o",
"+@@@@@@@@@@*@@*@@@@@*@@@@@@@@@$o",
"+@@@@@@@@@@****@@****@@@@@@@@@$o",
"+@@@@@@@@@@@@@*@@*@@@@@@@@@@@@$o",
"+@@@@@@@@@@@@@*@@*@@@@@@@@@@@@$o",
"+@@@@@@@@@@@@@*@@****@@@@@@@@@$o",
"+@@@@@@@@@@@@@@@@@@@@@@@@@@@@@$o",
"+@@@@@@@@@@@@@.............@@@$o",
"+@@..........@.OOOOOOOOOO%X.@@$o",
"+@@.OOOOOOXX.@.O         %XX.@$o",
"+@@.O&&O&OXX.@.O &&&&& & %XXX.$o",
"+@@.O&&OOOXX.@.O         %XXX.$o",
"+@@.O&&O&OXX.@.O && & && %XXX.$o",
"+@+.O&&O&OXX.@.O         %XX.@$o",
"+@@.OOOOOOXX.@.%%%%%%%%%%%X.@@$o",
"+@@.O&&&&OXX.@......XXXX...@@@$o",
"+@@.O&&&&OXX.@@@@@@.XXXXX.@@@@$o",
"+@..OOOOOOXX.........XXXXX.....o",
"+@.%%%%%%%%%%%%%%%%%%%%#######.o",
"+@.%#####%###########%%#######.o",
"+@.%#OOO#%O%O%O%O%O%O%%#######.o",
"+@.%#####%OOOOOOOOOOO%%#######.o",
"+@.%%%%%%%%%%%%%%%%%%%%#######.o",
"+@.############......%%#.@.OO#.o",
"+@.%%%%%%%%####.@@@@.%%#.@.OO#.o",
"+@.%%%%%%%%####.@@@@.%%#.@.OO#.o",
"+@.############.@@@@.%%#.@.OO#.o",
"+@.%%%%%%%%####.@@@@.%%#.@.OO#.o",
"+$.%%%%%%%%####.$$$$.%%#.$.OO#.o",
"+ooooooooooooooooooooooooooooooo"
};
