/* XPM */
static char *result[] = {
/* columns rows colors chars-per-pixel */
"64 64 116 2 ",
"   c #53303B",
".  c #623833",
"X  c #64593F",
"o  c #65643D",
"O  c #696F3C",
"+  c #5E3643",
"@  c #5D3B46",
"#  c #603744",
"$  c #643944",
"%  c #6B3C46",
"&  c #623F48",
"*  c #703F47",
"=  c #703F48",
"-  c #3F5755",
";  c #3C5A55",
":  c #3C644F",
">  c #3A6C4C",
",  c #3B7547",
"<  c #3A7B44",
"1  c #3B6451",
"2  c #4A4B4E",
"3  c #5C4C45",
"4  c #554249",
"5  c #5A4F50",
"6  c #435654",
"7  c #4A5352",
"8  c #555051",
"9  c #505853",
"0  c #634342",
"q  c #6E4146",
"w  c #6A4C43",
"e  c #64404B",
"r  c #6B444D",
"t  c #644B4E",
"y  c #6B4A4D",
"u  c #714247",
"i  c #754249",
"p  c #7A444A",
"a  c #734B4F",
"s  c #7D494A",
"d  c #615B48",
"f  c #745F41",
"g  c #77504B",
"h  c #7F544D",
"j  c #774A50",
"k  c #7B4C51",
"l  c #476C45",
"z  c #4A624F",
"x  c #51614E",
"c  c #556E4A",
"v  c #5E7B42",
"b  c #577348",
"n  c #7F7440",
"m  c #80474B",
"M  c #844C4C",
"N  c #894E4D",
"B  c #86514C",
"V  c #8C534E",
"C  c #8E594D",
"Z  c #91544E",
"A  c #945B4E",
"S  c #8D5D50",
"D  c #945550",
"F  c #995751",
"G  c #975950",
"H  c #9C5C51",
"J  c #A15D53",
"K  c #8C6C47",
"L  c #97604F",
"P  c #9C644F",
"I  c #9D6251",
"U  c #9E6858",
"Y  c #A46452",
"T  c #A96554",
"R  c #A76852",
"E  c #AC6B54",
"W  c #B26D56",
"Q  c #B57156",
"!  c #BA7557",
"~  c #BD7A57",
"^  c #B3775C",
"/  c #BD7758",
"(  c #BF7958",
")  c #C37D59",
"_  c #4E8C3E",
"`  c #5A963B",
"'  c #6C9637",
"]  c #6F9B36",
"[  c #649F38",
"{  c #65A037",
"}  c #6CA635",
"|  c #70A135",
" . c #72AA34",
".. c #8F953B",
"X. c #919D3D",
"o. c #83A539",
"O. c #85B736",
"+. c #8BBA37",
"@. c #98C238",
"#. c #A0C53A",
"$. c #A2C83A",
"%. c #ABCA3A",
"&. c #B2CF3D",
"*. c #BBB447",
"=. c #C28057",
"-. c #C68159",
";. c #CC845A",
":. c #CF885A",
">. c #D0875B",
",. c #D48B5B",
"<. c #D88E5C",
"1. c #DC925D",
"2. c #E1965E",
"3. c #E59A5E",
"4. c #C6BD49",
"5. c #CE8E61",
/* pixels */
"+ % p p i # # Z Y V i $ M $ + + + + N A $ # # p p p % # % I E p % M % + + + + u Y i + + * p p * + + H W p u $ p + + + + # H N $ ",
"+ + $ p + # + # p p + + s $ + + # V ) H i # + # = % + # + * p $ + i i + + + % W <.p + + + * i # # # # p i # # p + # + + H ,.p % ",
"# # + + $ Y A # + + + + + + # $ % ) E p % + $ # + + M T % + + + + + + + % + Y ) p u + $ + # + u E M + + # + + + + $ # N >.A p $ ",
"+ + * H Y ( ,.p + I * + + + + + $ m p p # + # # H H / 1.p $ q V + + + + + # p p p % + # + M H W -.Y i + E $ + # + + + * M p i # ",
"+ i W ) ,.( p p + % $ + p s + + + $ % + + + $ Y ) ;.,.V p $ # % + u s % + + # % + + + + m ! ) <.Q i p + % $ $ p p + + + % $ + + ",
"+ Y 3.3.M p p $ + + + V ( / $ + + + # + + + q <.3.J m p i # # + & W ( M + + # # + + + + ( 3.<.m p p # + + + H / W # + # # + + + ",
"+ + u p p % % + + $ + H ( ( ~ + $ p + # + + + $ p p p % + + $ + % / ( ;.# + p $ # + + + + i p p % # # % + + E ( ) C + % i + + + ",
"+ + + + + + + $ $ + + R ;.3.p + + # + N Z # + + # # # + # # $ # % ) 3.Y # + # # % H $ + + + # # + # # # + + ) ,.1.% + # # # H s ",
"% + + + + + N T E G + I R p i $ + % q ! >.M + + + + + i J E T % q Q p p % + + $ W >.E # + + + + # Z E E B + Q Z p u # + $ V ) -.",
"* + $ $ + V / ( ( ( R + p p + + # # g 3.m p + + u + % W / ( ) / + * i % + # + + 2.Y p % # % + # J / ) ( ~ M # p i + # # $ E 1.p ",
"% + + + % Q ( ( ( :.R $ + + & Y E i $ i p u # + + + J ) ) / ) ) % # + + M W R   % p p # + + + N / ) ) ( ,.V + + + u E E # $ p p ",
"+ # $ $ % Q ( ( ( 1.p p + # J ) ;.p + +   $ + $ # # J / ) / ;.J p $ + N ( 1.M $ # # # + $ # # M / / ~ ~ <.p i + $ W ) E i + # # ",
"+ D E ) # T ( ( >.N p p + + A Q p u + M % + % T W s u ) ) 5.T p p $ + s Q C p # $ s + + J W ! + / ) ) ( p p p + $ Y E p % + V $ ",
"p / -.H u $ ) 3.m p p $ + + + u u + + u u # ! ) ,.p + P 2.Y = p i # + + $ i # + # p + L / <.m % u ,.<.p p p + + + + p $ + + p % ",
"Q ,.R p $ # # i p p % $ # # + + s m B + + H <.( p * + + % p p = % + % + + i m V + + % -.,.Z p # + $ p p p % + & + + $ M M u + + ",
"E s p p + + + # + # + + # + # V ( ( ;.+ + I m p p $ + + + # + + + + + # % W ( <.# + q A p p i + + + + + # + + + + $ H ( -.L + + ",
"$ p i $ + + % + # % # + + p E / / 2.p * + + % p % . + % + + % $ + + $ Y W ) ) Y p # # % p u + + # $ + $ % + + + M W ( ( 2.p % # ",
"+ + + $ V + + + # p + + + Z / ) ;.H p p + + + # $ N # + + + p $ + # % W / ) ,.p p % #   + + q i + + + * i + + # J ) ( <.m p i + ",
"+ p H / Q % + + + + + + $ W <.<.R p p # * C V V W ) p $ + + + + + + Z >.<./ p p % i s p M R ( H % + + + # +   p ) <.,.Z p i + + ",
"% Q ( / >.p + + * J $ + + i s m p p * $ C Y H ) ) <.p $ + # H p + + $ s m p p p p i   p / ( ( Y i + + N F & $ # p p m p p $ # % ",
"& E ,.N p s + + W ,.V + # $ % p % %   C * Y <.>.R p p % + G ) E + + # % p * $ $ i . . . ) ~ s p p + % ! >.i + + $ i p $ % + + + ",
"# i p p p $ # H ) H p $ & + # # # # f %.%.%.&.&.0 p * # q ! ,.p * $ # + # + # & %.%.%.%.%.n p i + + Q ,.M i + $ # # # + + N Z + ",
"# + % p $ + + $ p p $ + Z $ + + # o +. . . .+. .| w + + + i p * + M i + # + X o. . . .O. . .O $ + # % p i # $ M # # + + N ) p % ",
"+ + + + + D % # # # # # # # $ $ % b < < } _ < < } d q p # + + + + # # + * + V < < ` { < < ` ' $ Z $ # # # + # # # % # N ) E p $ ",
"# # $ M V / ,.* + B $ # + + + + % x < < < < < < , g Q 2.p $ $ p + + + + + + B , < < < < < < d J ) R % + C $ + + + + + p Y p i + ",
"+ $ J ) ) <.m p + i * # $ $ + + + 2 ; > ; > < , 9 Q -.I p $ $ p # # # + + + @ ; ; 1 ; < < 1 J ) ,.p p + p $ + $ $ + + # p % + + ",
"+ Y 1.<.E N p % + + # p W E + + + + 2 ; 6 6 1 2 u H T p p # + + $ Y W p + + + 4 ; ; 5 ; - e s R p p % + + + N W T + + # + + + + ",
"+ $ p p p p = + # $ + D ( ) E + + + $ i s p 6 r F p p p + + * + % Q / ) + + + + i p s 8 7 D s p i % + % + + Y ( ( B + % i + + + ",
"+ + # $ % $ # + + + + R -.1.I + + + $ N H Z D F H N % + + + + + q ( 1.( + + + + = F J Z D J F * + + + + + + ( :.,.s + $ $ # m u ",
"+ + + # + # * J J p + ~ ;.p p $ + + $ Z Q J Q J W M # $ F J F # u 3.p p q + + + p W J W J W F $ + N J J % + 1.R s p # + $ M / ,.",
"u + # # + s W ! ( ( V $ p p % + + # + u J T J D F = $ Y W ! ) Y $ u p % + + + + # D J J F F p # N W ( ( ! u % p p $ # + $ R <.V ",
"* + # + % Q ) / ( ) -.+ + + + V Z # + + m J D = p $ J ) ) ) / <.$ + $ + % H q + + = J J p p u N / ( ( ( ;.A + + + # H M # u p p ",
"+ + + + % ! ( ( ( 2.p * + + V / ,.s + + $ N p $ % # J ) / ) ) P i $ + i W ,.Y # + + N m i $ % N ( ( ( ( 2.p % # # J ) ) % + $ % ",
"+ Z J Y + Y ( ) ;.H p p + + / 2.p p + $ $ u # # # + u ( ) ) >.p s $ + H 2.I p $ # $ # % # # $ + ( ( ( ,.s p = $ $ >.,.p i + % # ",
"% E ) Q % s ) 1.I p p % + + # i p # # N = $ # A E s $ E <.! p p i # # + % p % + $ M # # i Y W + V ,.,.V p p % + # $ p * + + Z % ",
"T ) ;.p u + % p p p p $ + # + + $ $ $ # # $ V ) :.Y + # p p p p = # # # # # $ % + + + i / <.N s + q s p p i + + # + # $ $ $ # + ",
"! E p p + + + $ $ % + + # # + p W W ) # + Z 1.Q p % + + + % % # + + % + $ Y W ;.+ + $ ;.,.V p $ + + % % $ + + $ + + N W Q A + + ",
"$ p p $ + # # + # # + + + $ J ! ) 1.p $ + # p p u + + # + + # + + + + V Y ) ) Y i # # * s i + # + + + + $ + + + % J ( ) 2.p $ + ",
"# $ $ + p # $ + $ p + + + V ( ( ) ! p p + + # $ + p + $ + + p % + + % W / ) ,.V p % + + % # $ % + $ + % i + + + J ) ( ;.R p i + ",
"+ $ p W J $ # + + + + + % Q ) ) ;.p p %       % Y W i # + + + + + + J ) ) <.p p =       $ V Q N $ + + + + + + M ( ) ;.Y p i + + ",
"% T ( ( ,.p + + $ N # + + V R E p p i Z % %   ! ) 2.p % + + M % + + % Y Y B p p   $ ) N Q ( ) R p # + i M + + $ A Y Y p p $ # $ ",
"% Q ;.A p p + + T ) Y + + % i p p i # % % Z Z ) ;.p p $ + N ) ! + + # p p p p %   / N ) ( ,.s p * # & W ) s + + i p p p u + # # ",
"+ V H p p % + V ) Q p # + # # % +   u #.#.#.#.4.% p p $ $ W ,.N u   + + & $ + + ..*.*.*.*.K p p $ # Y >.Y i + + + $ $ + + p M + ",
"+ + i p u + + u p p u + T $ + + + 3 #. . . .$. .' u + # $ p p p # H i + + + + X. . . .@. . .0 % # # i s p $ % C + + # + % Q m $ ",
"+ # # & + p + + $ % + + $ # # $ $ v _ _  .` _ _  .X $ $ # $ $ # + $ $ + % # h _ _ [ } _ _ { ] + m + # $ $ + + % + % + i Q / s $ ",
"$ $ # % i ! <.$ + % # # # + + + % c < < < < < < < 3 T 2.i # $ $ + # + + + + S , < < < < < < l N ) T # # % $ + + + + + M ,.p p # ",
"+ + F W ! ,.H p + M = # # + + +   7 : , : , < < z T ) ! p $ $ M + + + $ + + & 1 l > 1 < < > D / <.N p + D $ + # + + + $ p * $ + ",
"# Z ) ) 1.A p i + # # $ Y J + # # # - ; ; - , 6 $ ) ;.p p $ + + # V J i + + + 2 ; ; 6 > ; 4 B 2.p p u + + # % J F + + + + + + + ",
"+ p Y Y p p = # $ $ + V ) ) V + + + + t t y ; t N = p p $ + % + % W ( Y + + + + t t p 7 6 N p p p * + $ + + J ( ! s + $ * + + + ",
"+ + # i i $ # # + + # Y ( ) =.+ + + + p F N m F J N = # + + + + q ) ) ,.# + + + % D F m M J F p # + + # + + ( ) ;.C + % i + $ # ",
"+ + + + # # $ N N $ # ( ,.Y p # + + $ D W J W J W N # # N N M + u 1.Y N % # + + p E J W J T H $ + p N N + + 1./ P i # + + p W / ",
"i + + # # $ J ! / / % u p p u + + + + M J W F F F = # D T ( / B $ p p p + + + + $ J J J J J p $ u J / ) Q $ i p p $ + + * P ;.Y ",
"u + # # % T / / ) ) ) # $ $ # s M + + + N J F s M % D / / ) ) ,.# $ % # % N # + # = J J M m p p W ) ) / ) C # $ $ + N * + B P p ",
"+ + + + % Q ) / / 2.p $ + + i ! ;.B + + % F s $ = + J / / / ) I i # + & J ) ;.# + + F N p % # N ( / ( / 1.p $ + + V / ,.$ + = p ",
"+ p B N $ E ) ) ) W p p + + / 1.H p # # # = % + # # M ) ) ) ,.N p % + H 2.! = % # # % = $ + $ % ( ) ( ,.Y p i + $ >.<.N p # # + ",
"# H ) <.# P / ) -.p p i + # $ p p $ # H = = + s M % % / ) ,.p p p $ $   = m = + % N $ $ % M B + E ) ;.I p p * + # % p i + # E $ ",
"G / >.M u + B Y p p p $ + # + $ $ + + $ $ + p Q ,.I + i I N p p i # # + + $ + + # $ + % E ,.Y s # A H p p p # + # + $ $ # # $ $ ",
") 1.s p + + + q i i + + # $ # $ T J W + + p -.,.p p + + $ i i $ + + u # # Z J ! # + $ W ;.H p $ + + i i * + + % # + u J T B # # ",
"s p p % + + + + + + + + + + N T / ,.H $ + p I N i $ + + + + + + + + + p Z ! ) ! * + + G H p $ + + + + + + + + + # N W / <.m + + ",
"+ u * + $ + % + $ p + + + V ( ) ) ,.p p + + $ u + $ + % + + p $ + + $ Q ( ) ;.H p & + + u $ # $ # $ # % p + # # J ) ) ) ,.p p + ",
"+ + $ H F $ + + + $ + + $ T ( ) >.M p % + + + + C J % # + + $ + + + Z / ( ,.H p i $ + + + p I M # + + # % + + p Q ( ) ! p p $ # ",
"# F ( ) ,.p + + + % + + $ Y 1.<.p p i # $ + i Q / 2.p $ + + % $ + + m ;.1.H p p + $ + $ R ( -.Y i # # & & @ + $ Q 1.:.p p $ # # ",
"% W ) R G p + + G Q G + + q p p s p $ + $ + Y / >.H p % + s Q Y + + $ p p p p q + $ + N ( ,.D N i + $ T W p + + i p p p i + # # ",
"e U 5.k k k e e ^ 5.j e e % e k e e e e e & j 5.k k k r e U ~ U e e e e a r e e e e e e ^ U k k s e y Q 5.r e e e j k e e e e % "
};
